# Blender v2.83.1 OBJ File: 'Brett.blend'
# www.blender.org
mtllib brett.mtl
o Cube
v 4.200000 0.072303 -4.200000
v 4.200000 -0.072303 -4.200000
v 4.200000 0.072303 4.200000
v 4.200000 -0.072303 4.200000
v -4.200000 0.072303 -4.200000
v -4.200000 -0.072303 -4.200000
v -4.200000 0.072303 4.200000
v -4.200000 -0.072303 4.200000
vt 1.000566 -0.000075
vt 0.469980 0.999490
vt 0.469205 -0.000079
vt 0.265711 0.760723
vt 0.382751 0.703312
vt 0.265355 0.024803
vt 0.085888 0.283557
vt 0.085888 0.023344
vt 0.085888 0.495623
vt 0.002535 0.761672
vt 0.003310 0.495623
vt 0.327362 0.025313
vt 1.000244 1.000362
vt 0.266130 0.957689
vn 0.0000 1.0000 0.0000
vn 0.0000 0.0000 1.0000
vn -1.0000 0.0000 0.0000
vn 0.0000 -1.0000 0.0000
vn 1.0000 0.0000 0.0000
vn 0.0000 0.0000 -1.0000
usemtl Material
s off
f 5/1/1 3/2/1 1/3/1
f 3/2/2 8/4/2 4/5/2
f 7/6/3 6/7/3 8/8/3
f 2/9/4 8/10/4 6/11/4
f 1/3/5 4/5/5 2/9/5
f 5/12/6 2/9/6 6/7/6
f 5/1/1 7/13/1 3/2/1
f 3/2/2 7/14/2 8/4/2
f 7/6/3 5/12/3 6/7/3
f 2/9/4 4/5/4 8/10/4
f 1/3/5 3/2/5 4/5/5
f 5/12/6 1/3/6 2/9/6
