# Blender v2.83.1 OBJ File: ''
# www.blender.org
mtllib untitled.mtl
o Cube.001
v 0.000000 0.060808 1.000000
v 0.000000 -0.005810 -0.000000
v 0.000000 0.060808 0.000000
v 0.000000 -0.005810 1.000000
v 0.000000 0.060808 1.000000
v 0.000000 -0.005810 1.000000
v 0.000000 0.161166 1.000000
v 0.000000 0.161166 1.047227
v 0.000000 0.161166 1.000000
v 0.000000 0.161166 1.047227
v 0.000000 0.060808 1.047227
v 0.000000 -0.005810 1.000000
v 0.000000 -0.005810 1.047227
v 0.000000 0.060808 1.000000
v 0.000000 -0.005810 1.047227
v 0.000000 0.060808 1.047227
v -8.400000 -0.005810 -0.000000
v -8.400000 0.060808 1.000000
v -8.400000 0.060808 0.000000
v -8.400000 -0.005810 1.000000
v -8.400000 0.060808 1.000000
v -8.400000 0.161166 1.000000
v -8.400000 0.161166 1.047227
v -8.400000 0.161166 1.047227
v -8.400000 0.060808 1.047227
v -8.400000 0.060808 1.047227
v -8.400000 -0.005810 1.000000
v -8.400000 0.060808 1.000000
v -8.400000 -0.005810 1.000000
v -8.400000 0.161166 1.000000
v -8.400000 -0.005810 1.047227
v -8.400000 -0.005810 1.047227
v 0.000000 0.060808 -1.000000
v 0.000000 -0.005810 -1.000000
v 0.000000 0.060808 -1.000000
v 0.000000 0.161166 -1.000000
v 0.000000 0.161166 -1.047227
v 0.000000 0.161166 -1.047227
v 0.000000 0.060808 -1.047227
v 0.000000 0.060808 -1.047227
v 0.000000 -0.005810 -1.000000
v 0.000000 0.060808 -1.000000
v 0.000000 -0.005810 -1.000000
v 0.000000 0.161166 -1.000000
v 0.000000 -0.005810 -0.000000
v 0.000000 -0.005810 -1.047227
v 0.000000 -0.005810 -1.047227
v -8.400000 0.060808 -1.000000
v -8.400000 -0.005810 -1.000000
v -8.400000 0.060808 -1.000000
v -8.400000 -0.005810 -1.000000
v -8.400000 0.161166 -1.000000
v -8.400000 0.161166 -1.047227
v -8.400000 0.161166 -1.000000
v -8.400000 0.161166 -1.047227
v -8.400000 0.060808 -1.047227
v -8.400000 -0.005810 -1.000000
v -8.400000 -0.005810 -1.047227
v -8.400000 0.060808 -1.000000
v -8.400000 -0.005810 -0.000000
v -8.400000 0.060808 0.000000
v -8.400000 -0.005810 -1.047227
v -8.400000 0.060808 -1.047227
v 0.000000 0.060808 0.000000
vt 0.620659 0.554208
vt 0.615131 0.471231
vt 0.620659 0.471231
vt 0.532466 0.582833
vt 0.532549 0.578082
vt 0.532549 0.582834
vt 0.584123 0.567360
vt 0.584182 0.563991
vt 0.584182 0.567361
vt 0.550964 0.583039
vt 0.543805 0.582976
vt 0.550964 0.582914
vt 0.550964 0.582000
vt 0.545437 0.578081
vt 0.550964 0.578081
vt 0.516294 0.582000
vt 0.507966 0.578081
vt 0.516294 0.578081
vt 0.531469 0.582833
vt 0.531552 0.578082
vt 0.531552 0.582834
vt 0.580264 0.502595
vt 0.580389 0.495437
vt 0.580389 0.502596
vt 0.585072 0.571642
vt 0.585131 0.568274
vt 0.585131 0.571643
vt 0.512718 0.585032
vt 0.507966 0.585032
vt 0.512718 0.584949
vt 0.588465 0.471231
vt 0.588465 0.554392
vt 0.582949 0.471599
vt 0.581386 0.495437
vt 0.581386 0.500189
vt 0.581303 0.500189
vt 0.574859 0.583941
vt 0.578228 0.583911
vt 0.578228 0.583970
vt 0.561119 0.582994
vt 0.568279 0.582873
vt 0.568279 0.582998
vt 0.524898 0.578081
vt 0.524898 0.584857
vt 0.521701 0.582591
vt 0.570360 0.581959
vt 0.578687 0.578040
vt 0.578687 0.581959
vt 0.581386 0.479290
vt 0.581386 0.484043
vt 0.581303 0.484042
vt 0.580389 0.534890
vt 0.580264 0.527730
vt 0.580389 0.527730
vt 0.583186 0.572557
vt 0.583186 0.575926
vt 0.583127 0.575926
vt 0.566785 0.584949
vt 0.571538 0.584908
vt 0.571538 0.584991
vt 0.249467 0.000457
vt 0.249467 0.702382
vt 0.167073 0.010266
vt 0.416083 0.000457
vt 0.416083 0.702382
vt 0.333689 0.010266
vt 0.450201 0.000457
vt 0.450201 0.599730
vt 0.439742 0.599639
vt 0.461573 0.000457
vt 0.461573 0.599730
vt 0.451114 0.599639
vt 0.886843 0.639915
vt 0.416997 0.636187
vt 0.886843 0.631715
vt 0.623716 0.000457
vt 0.623716 0.396065
vt 0.616812 0.000496
vt 0.601176 0.396005
vt 0.608080 0.000457
vt 0.608080 0.396087
vt 0.539987 0.000457
vt 0.539986 0.577168
vt 0.529922 0.000577
vt 0.550964 0.000457
vt 0.550964 0.577168
vt 0.540900 0.000577
vt 0.601335 0.471231
vt 0.595807 0.554208
vt 0.595807 0.471231
vt 0.581386 0.513929
vt 0.581303 0.509177
vt 0.581386 0.509176
vt 0.542578 0.581451
vt 0.542520 0.578082
vt 0.542578 0.578081
vt 0.573835 0.576685
vt 0.580995 0.576563
vt 0.580995 0.576688
vt 0.529009 0.578081
vt 0.529009 0.584857
vt 0.525812 0.582591
vt 0.551878 0.581959
vt 0.560205 0.578040
vt 0.560205 0.581959
vt 0.581386 0.532483
vt 0.581303 0.527731
vt 0.581386 0.527730
vt 0.580389 0.518743
vt 0.580264 0.511584
vt 0.580389 0.511583
vt 0.561119 0.584949
vt 0.565871 0.584908
vt 0.565871 0.584991
vt 0.584158 0.571643
vt 0.584099 0.568275
vt 0.584158 0.568274
vt 0.581344 0.549545
vt 0.581344 0.554297
vt 0.581261 0.554296
vt 0.607776 0.554208
vt 0.602249 0.471231
vt 0.607776 0.471231
vt 0.530473 0.582833
vt 0.530556 0.578082
vt 0.530556 0.582834
vt 0.584684 0.581409
vt 0.584742 0.578040
vt 0.584742 0.581410
vt 0.541618 0.583039
vt 0.534459 0.582976
vt 0.541618 0.582914
vt 0.557406 0.586791
vt 0.551878 0.582873
vt 0.557406 0.582873
vt 0.569446 0.581959
vt 0.561119 0.578040
vt 0.569446 0.578040
vt 0.583127 0.567359
vt 0.583210 0.562608
vt 0.583210 0.567361
vt 0.580264 0.526815
vt 0.580389 0.519657
vt 0.580389 0.526817
vt 0.533462 0.582833
vt 0.533545 0.578082
vt 0.533545 0.582834
vt 0.584099 0.575925
vt 0.584158 0.572557
vt 0.584158 0.575926
vt 0.581303 0.538148
vt 0.581386 0.533396
vt 0.581386 0.538149
vt 0.166159 0.000457
vt 0.166159 0.702382
vt 0.083765 0.692574
vt 0.082851 0.000457
vt 0.082851 0.702382
vt 0.000457 0.692574
vt 0.495682 0.000457
vt 0.495682 0.599639
vt 0.485225 0.000457
vt 0.507053 0.000457
vt 0.507053 0.599639
vt 0.496596 0.000457
vt 0.582036 0.470303
vt 0.573835 0.000514
vt 0.582035 0.000457
vt 0.416997 0.677207
vt 0.812587 0.673397
vt 0.812587 0.680301
vt 0.416997 0.685025
vt 0.812587 0.681215
vt 0.812587 0.688119
vt 0.572922 0.577127
vt 0.562857 0.000503
vt 0.572922 0.000457
vt 0.561943 0.577127
vt 0.551878 0.000503
vt 0.561943 0.000457
vt 0.416997 0.645775
vt 0.886832 0.640829
vt 0.886832 0.649029
vt 0.462487 0.599548
vt 0.472942 0.000457
vt 0.472942 0.599730
vt 0.473856 0.599548
vt 0.484311 0.000457
vt 0.484311 0.599730
vt 0.594894 0.554392
vt 0.589378 0.554024
vt 0.594894 0.471231
vt 0.581386 0.487363
vt 0.581386 0.492116
vt 0.581303 0.492115
vt 0.530176 0.584750
vt 0.533545 0.584720
vt 0.533545 0.584779
vt 0.569192 0.582994
vt 0.576352 0.582873
vt 0.576352 0.582998
vt 0.587046 0.556167
vt 0.587046 0.561694
vt 0.583127 0.561694
vt 0.582213 0.556167
vt 0.582213 0.564494
vt 0.578295 0.564494
vt 0.581386 0.503510
vt 0.581386 0.508263
vt 0.581303 0.508262
vt 0.580389 0.542963
vt 0.580264 0.535804
vt 0.580389 0.535803
vt 0.541606 0.578081
vt 0.541606 0.581451
vt 0.541547 0.581450
vt 0.534459 0.583994
vt 0.539211 0.583953
vt 0.539211 0.584035
vt 0.507966 0.594111
vt 0.590943 0.594111
vt 0.590943 0.599639
vt 0.565872 0.583911
vt 0.565872 0.583994
vt 0.561119 0.583994
vt 0.543551 0.581451
vt 0.543492 0.581450
vt 0.543551 0.578081
vt 0.580264 0.471217
vt 0.580389 0.471217
vt 0.580389 0.478376
vt 0.539987 0.578082
vt 0.539987 0.582000
vt 0.534459 0.582000
vt 0.577381 0.564494
vt 0.573835 0.562825
vt 0.577381 0.555291
vt 0.573945 0.583911
vt 0.573945 0.583994
vt 0.569192 0.583994
vt 0.580264 0.487363
vt 0.580389 0.487363
vt 0.580389 0.494523
vt 0.544523 0.581451
vt 0.544464 0.581450
vt 0.544523 0.578081
vt 0.581344 0.548630
vt 0.581261 0.548629
vt 0.581344 0.543877
vt 0.000457 0.871076
vt 0.697461 0.871076
vt 0.697461 0.954052
vt 0.332775 0.702382
vt 0.250381 0.010266
vt 0.332775 0.000457
vt 0.428369 0.000457
vt 0.438828 0.000457
vt 0.438828 0.599730
vt 0.416997 0.000457
vt 0.427456 0.000457
vt 0.427456 0.599730
vt 0.416997 0.627075
vt 0.886843 0.622601
vt 0.886843 0.630801
vt 0.416997 0.654627
vt 0.812599 0.649943
vt 0.812599 0.656847
vt 0.416997 0.662444
vt 0.812599 0.657760
vt 0.812599 0.664665
vt 0.518031 0.577168
vt 0.507966 0.000577
vt 0.518031 0.000457
vt 0.416997 0.603820
vt 0.993667 0.600644
vt 0.993667 0.610709
vt 0.614218 0.471231
vt 0.614218 0.554208
vt 0.608690 0.554208
vt 0.580347 0.554297
vt 0.580264 0.554296
vt 0.580347 0.549544
vt 0.581362 0.542432
vt 0.581303 0.542431
vt 0.581362 0.539063
vt 0.580264 0.479290
vt 0.580389 0.479290
vt 0.580389 0.486450
vt 0.520788 0.584857
vt 0.517591 0.582591
vt 0.520788 0.578081
vt 0.578295 0.565408
vt 0.582213 0.565408
vt 0.582213 0.573735
vt 0.580347 0.548630
vt 0.580264 0.548629
vt 0.580347 0.543877
vt 0.515126 0.582914
vt 0.515126 0.583039
vt 0.507966 0.583039
vt 0.548558 0.583952
vt 0.548558 0.584035
vt 0.543805 0.584035
vt 0.533545 0.583748
vt 0.533545 0.583807
vt 0.530176 0.583806
vt 0.512719 0.583952
vt 0.512719 0.584035
vt 0.507966 0.584035
vt 0.579351 0.554377
vt 0.573835 0.554010
vt 0.579351 0.471217
vt 0.581386 0.519595
vt 0.581303 0.514843
vt 0.581386 0.514843
vt 0.583186 0.571643
vt 0.583127 0.568275
vt 0.583186 0.568274
vt 0.573835 0.575646
vt 0.580995 0.575525
vt 0.580995 0.575649
vt 0.582798 0.584816
vt 0.579601 0.580307
vt 0.582798 0.578040
vt 0.577381 0.574611
vt 0.573835 0.567076
vt 0.577381 0.565408
vt 0.581386 0.525262
vt 0.581303 0.520510
vt 0.581386 0.520509
vt 0.580389 0.510670
vt 0.580264 0.503510
vt 0.580389 0.503510
vt 0.572451 0.584949
vt 0.577204 0.584908
vt 0.577204 0.584991
vt 0.583770 0.581410
vt 0.583711 0.578041
vt 0.583770 0.578040
vt 0.581386 0.471217
vt 0.581386 0.475969
vt 0.581303 0.475969
vt 0.697459 0.703296
vt 0.697459 0.786272
vt 0.000457 0.786272
vt 0.697459 0.787186
vt 0.697459 0.870162
vt 0.000457 0.870162
vt 0.000457 0.982940
vt 0.599707 0.977711
vt 0.599707 0.988171
vt 0.000457 0.994313
vt 0.599707 0.989084
vt 0.599707 0.999543
vt 0.591149 0.470318
vt 0.582949 0.470231
vt 0.591149 0.000457
vt 0.615898 0.396065
vt 0.608994 0.395999
vt 0.615898 0.000457
vt 0.812587 0.665578
vt 0.812587 0.672483
vt 0.416997 0.669387
vt 0.529009 0.577168
vt 0.518944 0.577039
vt 0.529009 0.000457
vt 0.993661 0.611622
vt 0.993661 0.621687
vt 0.416997 0.619013
vt 0.592063 0.000514
vt 0.600263 0.000457
vt 0.600263 0.470303
vt 0.000457 0.971567
vt 0.599707 0.966339
vt 0.599707 0.976798
vt 0.000457 0.960195
vt 0.599707 0.954966
vt 0.599707 0.965425
vn 1.0000 0.0000 0.0000
vn 0.0000 0.0000 1.0000
vn 0.0000 0.0000 0.0000
vn -1.0000 0.0000 0.0000
vn 0.0000 1.0000 0.0000
vn 0.0000 -1.0000 -0.0000
vn 0.0000 0.0000 -1.0000
usemtl Material.001
s 1
f 1/1/1 2/2/1 3/3/1
f 4/4/2 5/5/2 6/6/3
f 7/7/3 8/8/3 9/9/3
f 10/10/3 11/11/2 8/12/3
f 12/13/1 11/14/1 13/15/1
f 14/16/1 8/17/1 11/18/1
f 6/19/3 14/20/2 12/21/3
f 5/22/2 9/23/3 14/24/2
f 15/25/3 12/26/3 13/27/3
f 16/28/2 13/29/3 11/30/2
f 17/31/4 18/32/4 19/33/4
f 20/34/2 21/35/2 18/36/2
f 22/37/3 23/38/3 24/39/3
f 24/40/3 25/41/2 26/42/2
f 27/43/4 25/44/4 28/45/4
f 23/46/4 28/47/4 25/48/4
f 29/49/3 28/50/2 21/51/2
f 21/52/2 30/53/3 22/54/3
f 31/55/3 27/56/3 29/57/3
f 26/58/2 32/59/3 31/60/3
f 3/61/5 18/62/5 1/63/5
f 4/64/6 17/65/6 2/66/6
f 5/67/2 18/68/2 21/69/2
f 4/70/2 29/71/3 20/72/2
f 16/73/2 31/74/3 15/75/3
f 15/76/6 29/77/6 6/78/6
f 7/79/5 24/80/5 10/81/5
f 5/82/7 22/83/7 7/84/7
f 10/85/3 26/86/2 16/87/2
f 2/88/1 33/89/1 3/90/1
f 34/91/2 35/92/2 33/93/2
f 36/94/3 37/95/3 38/96/3
f 38/97/3 39/98/2 40/99/2
f 41/100/1 39/101/1 42/102/1
f 37/103/1 42/104/1 39/105/1
f 43/106/3 42/107/2 35/108/2
f 35/109/2 44/110/3 36/111/3
f 3/112/2 45/113/2 2/114/2
f 46/115/3 41/116/3 43/117/3
f 40/118/2 47/119/3 46/120/3
f 48/121/4 17/122/4 19/123/4
f 49/124/2 50/125/2 51/126/3
f 52/127/3 53/128/3 54/129/3
f 55/130/3 56/131/2 53/132/3
f 57/133/4 56/134/4 58/135/4
f 59/136/4 53/137/4 56/138/4
f 51/139/3 59/140/2 57/141/3
f 50/142/2 54/143/3 59/144/2
f 19/145/2 60/146/2 61/147/2
f 62/148/3 57/149/3 58/150/3
f 63/151/2 58/152/3 56/153/2
f 48/154/5 3/155/5 33/156/5
f 17/157/6 34/158/6 2/159/6
f 35/160/2 48/161/2 33/162/2
f 34/163/2 51/164/3 43/165/3
f 62/166/7 40/167/7 46/168/7
f 51/169/6 46/170/6 43/171/6
f 55/172/5 36/173/5 38/174/5
f 52/175/3 35/176/2 36/177/3
f 63/178/7 38/179/7 40/180/7
f 61/181/2 45/182/2 64/183/2
f 45/184/2 17/185/2 2/186/2
f 3/187/2 61/188/2 64/189/2
f 1/190/1 4/191/1 2/192/1
f 4/193/2 1/194/2 5/195/2
f 7/196/3 10/197/3 8/198/3
f 10/199/3 16/200/2 11/201/2
f 12/202/1 14/203/1 11/204/1
f 14/205/1 9/206/1 8/207/1
f 6/208/3 5/209/2 14/210/2
f 5/211/2 7/212/3 9/213/3
f 15/214/3 6/215/3 12/216/3
f 16/217/2 15/218/3 13/219/3
f 17/220/4 20/221/4 18/222/4
f 20/223/2 29/224/3 21/225/2
f 22/226/3 30/227/3 23/228/3
f 24/229/3 23/230/3 25/231/2
f 27/232/4 32/233/4 25/234/4
f 23/235/4 30/236/4 28/237/4
f 29/238/3 27/239/3 28/240/2
f 21/241/2 28/242/2 30/243/3
f 31/244/3 32/245/3 27/246/3
f 26/247/2 25/248/2 32/249/3
f 3/250/5 19/251/5 18/252/5
f 4/253/6 20/254/6 17/255/6
f 5/256/2 1/257/2 18/258/2
f 4/259/2 6/260/3 29/261/3
f 16/262/2 26/263/2 31/264/3
f 15/265/6 31/266/6 29/267/6
f 7/268/5 22/269/5 24/270/5
f 5/271/7 21/272/7 22/273/7
f 10/274/3 24/275/3 26/276/2
f 2/277/1 34/278/1 33/279/1
f 34/280/2 43/281/3 35/282/2
f 36/283/3 44/284/3 37/285/3
f 38/286/3 37/287/3 39/288/2
f 41/289/1 47/290/1 39/291/1
f 37/292/1 44/293/1 42/294/1
f 43/295/3 41/296/3 42/297/2
f 35/298/2 42/299/2 44/300/3
f 3/301/2 64/302/2 45/303/2
f 46/304/3 47/305/3 41/306/3
f 40/307/2 39/308/2 47/309/3
f 48/310/4 49/311/4 17/312/4
f 49/313/2 48/314/2 50/315/2
f 52/316/3 55/317/3 53/318/3
f 55/319/3 63/320/2 56/321/2
f 57/322/4 59/323/4 56/324/4
f 59/325/4 54/326/4 53/327/4
f 51/328/3 50/329/2 59/330/2
f 50/331/2 52/332/3 54/333/3
f 19/334/2 17/335/2 60/336/2
f 62/337/3 51/338/3 57/339/3
f 63/340/2 62/341/3 58/342/3
f 48/343/5 19/344/5 3/345/5
f 17/346/6 49/347/6 34/348/6
f 35/349/2 50/350/2 48/351/2
f 34/352/2 49/353/2 51/354/3
f 62/355/7 63/356/7 40/357/7
f 51/358/6 62/359/6 46/360/6
f 55/361/5 52/362/5 36/363/5
f 52/364/3 50/365/2 35/366/2
f 63/367/7 55/368/7 38/369/7
f 61/370/2 60/371/2 45/372/2
f 45/373/2 60/374/2 17/375/2
f 3/376/2 19/377/2 61/378/2
