# Blender v2.83.1 OBJ File: ''
# www.blender.org
mtllib possibleMarker.mtl
o Torus.001
v 0.459619 0.000000 -0.459619
v 0.353553 0.150000 -0.353553
v 0.247487 0.000000 -0.247487
v 0.353553 -0.150000 -0.353553
v -0.459619 0.000000 -0.459619
v -0.353553 0.150000 -0.353553
v -0.247487 0.000000 -0.247487
v -0.353553 -0.150000 -0.353553
v -0.459619 0.000000 0.459619
v -0.353553 0.150000 0.353553
v -0.247487 0.000000 0.247487
v -0.353553 -0.150000 0.353553
v 0.459619 0.000000 0.459619
v 0.353553 0.150000 0.353553
v 0.247487 0.000000 0.247487
v 0.353553 -0.150000 0.353553
vt 0.750000 0.500000
vt 0.500000 0.750000
vt 0.500000 0.500000
vt 0.750000 0.750000
vt 0.500000 1.000000
vt 0.750000 0.000000
vt 0.500000 0.250000
vt 0.500000 0.000000
vt 0.750000 0.250000
vt 1.000000 0.500000
vt 1.000000 1.000000
vt 0.750000 1.000000
vt 1.000000 0.250000
vt 0.250000 0.500000
vt 0.000000 0.750000
vt 0.000000 0.500000
vt 0.250000 0.750000
vt 0.000000 1.000000
vt 0.250000 0.000000
vt 0.000000 0.250000
vt 0.000000 0.000000
vt 0.250000 1.000000
vt 0.250000 0.250000
vt 1.000000 0.750000
vt 1.000000 0.000000
vn 0.0000 0.5774 -0.8165
vn 0.0000 0.5774 0.8165
vn 0.0000 -0.5774 0.8165
vn 0.0000 -0.5774 -0.8165
vn -0.8165 0.5774 -0.0000
vn 0.8165 0.5774 0.0000
vn 0.8165 -0.5774 0.0000
vn -0.8165 -0.5774 -0.0000
usemtl None
s off
f 5/1/1 2/2/1 1/3/1
f 6/4/2 3/5/2 2/2/2
f 7/6/3 4/7/3 3/8/3
f 8/9/4 1/3/4 4/7/4
f 9/10/5 6/4/5 5/1/5
f 6/4/6 11/11/6 7/12/6
f 7/6/7 12/13/7 8/9/7
f 12/13/8 5/1/8 8/9/8
f 13/14/2 10/15/2 9/16/2
f 14/17/1 11/18/1 10/15/1
f 15/19/4 12/20/4 11/21/4
f 12/20/3 13/14/3 9/16/3
f 1/3/6 14/17/6 13/14/6
f 2/2/5 15/22/5 14/17/5
f 3/8/8 16/23/8 15/19/8
f 4/7/7 13/14/7 16/23/7
f 5/1/1 6/4/1 2/2/1
f 6/4/2 7/12/2 3/5/2
f 7/6/3 8/9/3 4/7/3
f 8/9/4 5/1/4 1/3/4
f 9/10/5 10/24/5 6/4/5
f 6/4/6 10/24/6 11/11/6
f 7/6/7 11/25/7 12/13/7
f 12/13/8 9/10/8 5/1/8
f 13/14/2 14/17/2 10/15/2
f 14/17/1 15/22/1 11/18/1
f 15/19/4 16/23/4 12/20/4
f 12/20/3 16/23/3 13/14/3
f 1/3/6 2/2/6 14/17/6
f 2/2/5 3/5/5 15/22/5
f 3/8/8 4/7/8 16/23/8
f 4/7/7 1/3/7 13/14/7
